<svg
    width="500px"
    height="100px"
    xmlns="http://www.w3.org/2000/svg"
    viewBox="116.18437499999999 14 267.63125 122"
    style="background: rgba(0, 0, 0, 0)"
    preserveAspectRatio="xMidYMid"
>
    <defs>
        <filter
            id="editing-hole"
            x="-100%"
            y="-100%"
            width="200%"
            height="200%"
        >
            <feFlood flood-color="#000" result="black"></feFlood>
            <feMorphology
                operator="dilate"
                radius="2"
                in="SourceGraphic"
                result="erode"
            ></feMorphology>
            <feGaussianBlur
                in="erode"
                stdDeviation="4"
                result="blur"
            ></feGaussianBlur>
            <feComposite
                operator="atop"
                in="offset"
                in2="black"
                result="merge"
            ></feComposite>
            <feComposite
                operator="in"
                in="merge"
                in2="SourceGraphic"
                result="inner-shadow"
            ></feComposite>
        </filter>
    </defs>
    <g filter="url(#editing-hole)">
        <g transform="translate(160.78500851988792, 104.76000022888184)">
            <path
                d="M14.34 0L0.38 0L8.51-42.24L22.59-42.24L14.34 0ZM70.08 1.28L70.08 1.28L70.08 1.28Q62.34 1.28 62.34-4.74L62.34-4.74L62.34-4.74Q62.34-7.36 63.46-12.45L63.46-12.45L63.46-12.45Q64.58-17.54 64.96-19.58L64.96-19.58L64.96-19.58Q65.86-24.26 65.86-25.73L65.86-25.73L65.86-25.73Q65.86-28.99 63.42-28.99L63.42-28.99L63.42-28.99Q61.82-28.99 60.29-26.78L60.29-26.78L60.29-26.78Q58.75-24.58 58.05-20.16L58.05-20.16L54.08 0L41.60 1.28L45.06-16.13L45.06-16.13Q45.63-19.01 46.14-22.27L46.14-22.27L46.14-22.27Q46.66-25.54 46.66-26.05L46.66-26.05L46.66-26.05Q46.66-28.99 44.48-28.99L44.48-28.99L44.48-28.99Q43.01-28.99 41.41-26.82L41.41-26.82L41.41-26.82Q39.81-24.64 38.91-20.16L38.91-20.16L35.01 0L22.40 1.28L29.12-32.64L39.55-33.92L38.46-27.46L38.46-27.46Q40.13-30.91 43.20-32.42L43.20-32.42L43.20-32.42Q46.27-33.92 51.07-33.92L51.07-33.92L51.07-33.92Q53.82-33.92 55.62-32.58L55.62-32.58L55.62-32.58Q57.41-31.23 57.98-29.06L57.98-29.06L57.98-29.06Q59.07-31.30 61.86-32.61L61.86-32.61L61.86-32.61Q64.64-33.92 68.06-33.92L68.06-33.92L68.06-33.92Q71.49-33.92 73.18-33.18L73.18-33.18L73.18-33.18Q74.88-32.45 75.90-31.23L75.90-31.23L75.90-31.23Q77.63-28.99 77.63-24.90L77.63-24.90L77.63-24.90Q77.63-20.86 75.90-12.48L75.90-12.48L75.90-12.48Q75.01-8.38 75.01-6.88L75.01-6.88L75.01-6.88Q75.01-5.38 75.87-4.48L75.87-4.48L75.87-4.48Q76.74-3.58 78.02-3.46L78.02-3.46L78.02-3.46Q77.38-1.28 75.17 0L75.17 0L75.17 0Q72.96 1.28 70.08 1.28ZM112.77-4.38L112.77-4.38L112.77-4.38Q110.08-1.66 106.40-0.19L106.40-0.19L106.40-0.19Q102.72 1.28 99.07 1.28L99.07 1.28L99.07 1.28Q95.42 1.28 94.14 0.64L94.14 0.64L92.16 11.52L79.17 12.80L88-32.64L98.43-33.73L97.60-29.31L97.60-29.31Q100.29-33.86 105.86-33.86L105.86-33.86L105.86-33.86Q112.13-33.86 115.46-29.82L115.46-29.82L115.46-29.82Q118.40-26.18 118.40-20.61L118.40-20.61L118.40-20.61Q118.40-15.04 116.93-11.07L116.93-11.07L116.93-11.07Q115.46-7.10 112.77-4.38ZM98.30-22.34L94.91-3.58L94.91-3.58Q96.26-2.43 97.92-2.43L97.92-2.43L97.92-2.43Q99.58-2.43 100.54-3.07L100.54-3.07L100.54-3.07Q101.50-3.71 102.21-4.99L102.21-4.99L102.21-4.99Q104.13-8.45 105.66-18.94L105.66-18.94L105.66-18.94Q106.11-22.02 106.11-25.02L106.11-25.02L106.11-25.02Q106.11-28.03 105.44-28.99L105.44-28.99L105.44-28.99Q104.77-29.95 103.49-29.95L103.49-29.95L103.49-29.95Q99.58-29.95 98.30-22.34L98.30-22.34ZM137.60-3.52L137.60-3.52L137.60-3.52Q135.62 1.28 129.28 1.28L129.28 1.28L129.28 1.28Q126.02 1.28 123.97-0.96L123.97-0.96L123.97-0.96Q122.24-2.94 122.24-4.93L122.24-4.93L122.24-4.93Q122.24-10.11 124.61-20.22L124.61-20.22L126.98-32.64L139.97-33.92L136.06-13.70L136.06-13.70Q134.98-8.96 134.98-7.30L134.98-7.30L134.98-7.30Q134.98-3.65 137.60-3.52ZM128.13-41.54L128.13-41.54L128.13-41.54Q128.13-44.03 130.21-45.38L130.21-45.38L130.21-45.38Q132.29-46.72 135.30-46.72L135.30-46.72L135.30-46.72Q138.30-46.72 140.13-45.38L140.13-45.38L140.13-45.38Q141.95-44.03 141.95-41.54L141.95-41.54L141.95-41.54Q141.95-39.04 139.94-37.76L139.94-37.76L139.94-37.76Q137.92-36.48 134.91-36.48L134.91-36.48L134.91-36.48Q131.90-36.48 130.02-37.76L130.02-37.76L130.02-37.76Q128.13-39.04 128.13-41.54ZM170.11 1.28L170.11 1.28L170.11 1.28Q162.37 1.28 162.37-4.74L162.37-4.74L162.37-4.74Q162.43-6.40 162.94-9.22L162.94-9.22L164.10-15.10L164.10-15.10Q165.82-23.42 165.82-25.28L165.82-25.28L165.82-25.28Q165.82-28.99 163.65-28.99L163.65-28.99L163.65-28.99Q160-28.99 158.08-19.46L158.08-19.46L154.30 0L141.44 1.28L148.10-32.70L158.59-33.92L157.57-27.65L157.57-27.65Q160.58-33.92 169.79-33.92L169.79-33.92L169.79-33.92Q174.27-33.92 176.16-32.03L176.16-32.03L176.16-32.03Q178.05-30.14 178.05-25.92L178.05-25.92L178.05-25.92Q178.05-21.95 176-12.67L176-12.67L176-12.67Q175.04-8.51 175.04-6.94L175.04-6.94L175.04-6.94Q175.04-5.38 175.90-4.48L175.90-4.48L175.90-4.48Q176.77-3.58 178.05-3.46L178.05-3.46L178.05-3.46Q177.41-1.28 175.20 0L175.20 0L175.20 0Q172.99 1.28 170.11 1.28Z"
                fill="#fff"
            ></path>
        </g>
    </g>
</svg>
