<svg xmlns="http://www.w3.org/2000/svg" xmlns:xlink="http://www.w3.org/1999/xlink" preserveAspectRatio="xMidYMid meet" viewBox="116.18437499999999 14 267.63125 122" height="100px" width="500px" id="generated_svg" content="INSTAD.IO" generator="INSTAD.IO / https://instad.io / info@instad.io / Thu Apr 27 2023 21:09:11 GMT+0200 (heure d’été d’Europe centrale)"><rect x="0" y="0" width="0" height="0" fill="#FFFFFF"></rect><g id="instad_all_elements">     <defs>         <filter height="200%" width="200%" y="-100%" x="-100%" id="editing-hole">             <feFlood result="black" flood-color="#000"></feFlood>             <feMorphology result="erode" in="SourceGraphic" radius="2" operator="dilate"></feMorphology>             <feGaussianBlur result="blur" stdDeviation="4" in="erode"></feGaussianBlur>             <feComposite result="merge" in2="black" in="offset" operator="atop"></feComposite>             <feComposite result="inner-shadow" in2="SourceGraphic" in="merge" operator="in"></feComposite>         </filter>     </defs>     <g filter="url(#editing-hole)">         <g transform="translate(160.78500851988792, 104.76000022888184)">             <g meta_uid="1" meta_shape="path" meta_size="0" class="instad_path instad_cnt_1" meta_closed="true"><path d="M8.21 -41.89 C8.21 -41.89, 8.21 -41.89, 8.21 -41.89 M8.21 -41.89 C8.21 -41.89, 8.21 -41.89, 8.21 -41.89 M7.6 -37.12 C9.15 -38.91, 10.7 -40.69, 12.19 -42.41 M7.6 -37.12 C8.78 -38.48, 9.96 -39.84, 12.19 -42.41 M6.33 -31.6 C8.25 -33.81, 10.16 -36.01, 15.51 -42.17 M6.33 -31.6 C8.57 -34.18, 10.81 -36.76, 15.51 -42.17 M5.72 -26.83 C8.8 -30.37, 11.87 -33.92, 18.84 -41.93 M5.72 -26.83 C10.66 -32.52, 15.6 -38.2, 18.84 -41.93 M4.45 -21.31 C8.92 -26.45, 13.39 -31.6, 22.82 -42.44 M4.45 -21.31 C10.17 -27.9, 15.9 -34.48, 22.82 -42.44 M3.18 -15.79 C7.18 -20.38, 11.18 -24.98, 21.55 -36.92 M3.18 -15.79 C9.69 -23.27, 16.19 -30.75, 21.55 -36.92 M2.57 -11.02 C8.59 -17.95, 14.62 -24.88, 20.28 -31.39 M2.57 -11.02 C9.06 -18.48, 15.54 -25.94, 20.28 -31.39 M1.3 -5.49 C6.27 -11.21, 11.24 -16.93, 19.67 -26.63 M1.3 -5.49 C5.53 -10.36, 9.77 -15.24, 19.67 -26.63 M0.69 -0.73 C4.69 -5.33, 8.7 -9.94, 18.4 -21.1 M0.69 -0.73 C4.54 -5.16, 8.39 -9.59, 18.4 -21.1 M2.05 1.78 C6.6 -3.46, 11.15 -8.69, 17.79 -16.33 M2.05 1.78 C7.9 -4.96, 13.76 -11.69, 17.79 -16.33 M30.91 -31.43 C30.91 -31.43, 30.91 -31.43, 30.91 -31.43 M30.91 -31.43 C30.91 -31.43, 30.91 -31.43, 30.91 -31.43 M6.03 1.26 C9.03 -2.19, 12.04 -5.65, 16.52 -10.81 M6.03 1.26 C8.84 -1.97, 11.65 -5.2, 16.52 -10.81 M29.64 -25.91 C31.65 -28.21, 33.66 -30.52, 34.89 -31.94 M29.64 -25.91 C30.8 -27.24, 31.96 -28.56, 34.89 -31.94 M9.35 1.5 C11.1 -0.51, 12.86 -2.53, 15.26 -5.29 M9.35 1.5 C11.57 -1.04, 13.78 -3.59, 15.26 -5.29 M28.38 -20.38 C31.29 -23.74, 34.21 -27.09, 40.19 -33.97 M28.38 -20.38 C31.9 -24.44, 35.42 -28.49, 40.19 -33.97 M12.68 1.74 C13.26 1.07, 13.84 0.41, 14.64 -0.52 M12.68 1.74 C13.3 1.02, 13.93 0.31, 14.64 -0.52 M27.77 -15.61 C31.72 -20.16, 35.67 -24.71, 38.92 -28.44 M27.77 -15.61 C30.74 -19.04, 33.71 -22.46, 38.92 -28.44 M40.89 -30.71 C40.89 -30.71, 40.89 -30.71, 40.89 -30.71 M40.89 -30.71 C40.89 -30.71, 40.89 -30.71, 40.89 -30.71 M26.5 -10.09 C30.68 -14.91, 34.87 -19.72, 46.84 -33.49 M26.5 -10.09 C31.94 -16.35, 37.38 -22.61, 46.84 -33.49 M25.23 -4.57 C29.1 -9.02, 32.97 -13.47, 40.98 -22.68 M25.23 -4.57 C29.04 -8.95, 32.86 -13.34, 40.98 -22.68 M45.57 -27.96 C47.38 -30.05, 49.19 -32.13, 50.16 -33.25 M45.57 -27.96 C46.89 -29.49, 48.22 -31.02, 50.16 -33.25 M23.31 1.71 C29.83 -5.79, 36.35 -13.29, 40.36 -17.91 M23.31 1.71 C26.78 -2.29, 30.26 -6.29, 40.36 -17.91 M46.92 -25.46 C49.57 -28.5, 52.21 -31.54, 54.14 -33.76 M46.92 -25.46 C48.56 -27.34, 50.2 -29.22, 54.14 -33.76 M27.29 1.19 C30.96 -3.04, 34.64 -7.27, 39.1 -12.39 M27.29 1.19 C30.76 -2.8, 34.23 -6.79, 39.1 -12.39 M46.31 -20.69 C49.07 -23.86, 51.82 -27.03, 56.15 -32.01 M46.31 -20.69 C49.43 -24.28, 52.56 -27.88, 56.15 -32.01 M30.61 1.43 C33.3 -1.66, 35.99 -4.76, 37.83 -6.87 M30.61 1.43 C32.11 -0.29, 33.61 -2.01, 37.83 -6.87 M45.04 -15.17 C49.25 -20.01, 53.46 -24.85, 57.51 -29.51 M45.04 -15.17 C47.58 -18.08, 50.11 -21, 57.51 -29.51 M44.43 -10.4 C49.96 -16.76, 55.5 -23.13, 60.83 -29.27 M44.43 -10.4 C50.73 -17.65, 57.03 -24.9, 60.83 -29.27 M43.17 -4.88 C46.77 -9.02, 50.37 -13.16, 59.57 -23.75 M43.17 -4.88 C48.46 -10.97, 53.76 -17.07, 59.57 -23.75 M63.5 -28.27 C64.44 -29.35, 65.37 -30.43, 66.78 -32.05 M63.5 -28.27 C64.56 -29.48, 65.61 -30.7, 66.78 -32.05 M42.55 -0.11 C45.97 -4.03, 49.38 -7.96, 58.3 -18.22 M42.55 -0.11 C46.77 -4.96, 50.98 -9.81, 58.3 -18.22 M66.17 -27.28 C67.26 -28.53, 68.35 -29.79, 71.42 -33.32 M66.17 -27.28 C67.77 -29.12, 69.37 -30.96, 71.42 -33.32 M43.25 3.15 C47.96 -2.27, 52.67 -7.69, 57.03 -12.7 M43.25 3.15 C46.18 -0.22, 49.11 -3.58, 57.03 -12.7 M67.53 -24.77 C69.9 -27.5, 72.26 -30.22, 74.09 -32.32 M67.53 -24.77 C69.35 -26.86, 71.16 -28.96, 74.09 -32.32 M47.23 2.64 C50.17 -0.75, 53.11 -4.13, 56.42 -7.93 M47.23 2.64 C50.37 -0.97, 53.5 -4.57, 56.42 -7.93 M66.26 -19.25 C70.02 -23.57, 73.77 -27.89, 76.1 -30.57 M66.26 -19.25 C69.75 -23.26, 73.24 -27.28, 76.1 -30.57 M51.22 2.12 C52.64 0.48, 54.06 -1.15, 55.15 -2.41 M51.22 2.12 C52.26 0.92, 53.31 -0.29, 55.15 -2.41 M65.65 -14.48 C68.84 -18.16, 72.04 -21.84, 77.46 -28.07 M65.65 -14.48 C68.63 -17.91, 71.61 -21.34, 77.46 -28.07 M63.07 -7.45 C69.01 -14.28, 74.94 -21.11, 78.16 -24.81 M63.07 -7.45 C68.87 -14.13, 74.68 -20.8, 78.16 -24.81 M63.11 -3.44 C66.52 -7.35, 69.92 -11.27, 77.55 -20.04 M63.11 -3.44 C66.72 -7.59, 70.33 -11.74, 77.55 -20.04 M88.04 -32.12 C88.04 -32.12, 88.04 -32.12, 88.04 -32.12 M88.04 -32.12 C88.04 -32.12, 88.04 -32.12, 88.04 -32.12 M64.47 -0.93 C67.41 -4.31, 70.35 -7.69, 76.28 -14.52 M64.47 -0.93 C67.14 -4.01, 69.81 -7.08, 76.28 -14.52 M87.43 -27.35 C88.5 -28.57, 89.57 -29.8, 92.02 -32.63 M87.43 -27.35 C88.72 -28.83, 90.01 -30.31, 92.02 -32.63 M65.83 1.57 C68.72 -1.75, 71.6 -5.08, 75.67 -9.75 M65.83 1.57 C68.19 -1.15, 70.55 -3.86, 75.67 -9.75 M86.16 -21.82 C90.02 -26.26, 93.88 -30.7, 96.01 -33.15 M86.16 -21.82 C88.78 -24.83, 91.39 -27.83, 96.01 -33.15 M68.49 2.57 C70.63 0.11, 72.77 -2.35, 75.71 -5.74 M68.49 2.57 C70.75 -0.02, 73 -2.61, 75.71 -5.74 M85.55 -17.06 C91.01 -23.33, 96.46 -29.6, 99.33 -32.91 M85.55 -17.06 C89.68 -21.8, 93.8 -26.55, 99.33 -32.91 M71.82 2.81 C72.93 1.53, 74.04 0.25, 77.07 -3.23 M71.82 2.81 C73.48 0.89, 75.15 -1.02, 77.07 -3.23 M84.28 -11.53 C90.5 -18.69, 96.73 -25.84, 103.31 -33.42 M84.28 -11.53 C90.91 -19.16, 97.54 -26.79, 103.31 -33.42 M83.02 -6.01 C89.57 -13.55, 96.12 -21.09, 99.42 -24.88 M83.02 -6.01 C86.78 -10.34, 90.54 -14.66, 99.42 -24.88 M103.35 -29.41 C104.31 -30.5, 105.26 -31.59, 106.64 -33.18 M103.35 -29.41 C104.63 -30.88, 105.91 -32.35, 106.64 -33.18 M82.41 -1.24 C86.6 -6.07, 90.8 -10.9, 99.46 -20.86 M82.41 -1.24 C87.33 -6.9, 92.25 -12.56, 99.46 -20.86 M106.02 -28.41 C107.4 -30, 108.78 -31.58, 109.96 -32.94 M106.02 -28.41 C107.08 -29.63, 108.13 -30.84, 109.96 -32.94 M81.14 4.28 C87.35 -2.87, 93.56 -10.01, 98.85 -16.1 M81.14 4.28 C85.91 -1.21, 90.68 -6.7, 98.85 -16.1 M106.07 -24.4 C108.15 -26.8, 110.24 -29.19, 112.63 -31.94 M106.07 -24.4 C108.1 -26.73, 110.12 -29.06, 112.63 -31.94 M79.87 9.8 C86.26 2.45, 92.66 -4.9, 97.58 -10.57 M79.87 9.8 C84.25 4.77, 88.63 -0.27, 97.58 -10.57 M106.11 -20.38 C108.51 -23.15, 110.91 -25.91, 114.64 -30.2 M106.11 -20.38 C109.31 -24.07, 112.52 -27.75, 114.64 -30.2 M79.91 13.82 C83.17 10.07, 86.42 6.33, 95 -3.54 M79.91 13.82 C83.3 9.92, 86.69 6.02, 95 -3.54 M107.47 -17.88 C110.73 -21.63, 113.98 -25.37, 116.65 -28.45 M107.47 -17.88 C109.66 -20.4, 111.86 -22.93, 116.65 -28.45 M129.12 -42.79 C129.72 -43.47, 130.32 -44.16, 131.09 -45.05 M129.12 -42.79 C129.58 -43.32, 130.05 -43.86, 131.09 -45.05 M83.89 13.3 C86.94 9.8, 89.98 6.3, 94.39 1.23 M83.89 13.3 C87.18 9.53, 90.46 5.75, 94.39 1.23 M94.39 1.23 C95.27 0.22, 96.14 -0.78, 97.67 -2.55 M94.39 1.23 C95.34 0.14, 96.28 -0.95, 97.67 -2.55 M104.23 -10.09 C109.05 -15.63, 113.86 -21.17, 118.01 -25.94 M104.23 -10.09 C108.36 -14.85, 112.5 -19.6, 118.01 -25.94 M129.16 -38.77 C131.12 -41.03, 133.09 -43.28, 135.72 -46.32 M129.16 -38.77 C131.38 -41.32, 133.59 -43.87, 135.72 -46.32 M87.88 12.79 C89.8 10.57, 91.73 8.36, 93.78 6 M87.88 12.79 C89.79 10.59, 91.7 8.39, 93.78 6 M97.72 1.47 C103.43 -5.11, 109.15 -11.68, 118.05 -21.93 M97.72 1.47 C102.15 -3.63, 106.58 -8.73, 118.05 -21.93 M127.24 -32.49 C127.24 -32.49, 127.24 -32.49, 127.24 -32.49 M127.24 -32.49 C127.24 -32.49, 127.24 -32.49, 127.24 -32.49 M131.18 -37.02 C134.09 -40.38, 137.01 -43.73, 139.05 -46.08 M131.18 -37.02 C133.95 -40.22, 136.73 -43.41, 139.05 -46.08 M100.39 2.46 C107.9 -6.18, 115.41 -14.82, 119.41 -19.42 M100.39 2.46 C106.48 -4.54, 112.57 -11.55, 119.41 -19.42 M125.97 -26.97 C127.61 -28.86, 129.26 -30.75, 131.22 -33.01 M125.97 -26.97 C127.73 -28.99, 129.49 -31.02, 131.22 -33.01 M133.84 -36.03 C135.64 -38.1, 137.44 -40.16, 141.06 -44.33 M133.84 -36.03 C136.59 -39.18, 139.33 -42.34, 141.06 -44.33 M104.37 1.95 C109.44 -3.89, 114.51 -9.73, 118.8 -14.66 M104.37 1.95 C109.42 -3.87, 114.48 -9.69, 118.8 -14.66 M125.36 -22.2 C129.09 -26.49, 132.81 -30.78, 135.2 -33.52 M125.36 -22.2 C128.76 -26.11, 132.16 -30.02, 135.2 -33.52 M136.51 -35.03 C137.8 -36.52, 139.09 -38, 141.76 -41.07 M136.51 -35.03 C137.79 -36.5, 139.06 -37.97, 141.76 -41.07 M124.09 -16.68 C129.04 -22.37, 133.98 -28.06, 138.53 -33.28 M124.09 -16.68 C127.81 -20.96, 131.53 -25.23, 138.53 -33.28 M122.82 -11.16 C128.7 -17.92, 134.58 -24.68, 141.19 -32.29 M122.82 -11.16 C128.4 -17.57, 133.98 -23.99, 141.19 -32.29 M122.21 -6.39 C125.96 -10.7, 129.71 -15.01, 140.58 -27.52 M122.21 -6.39 C129.5 -14.77, 136.78 -23.15, 140.58 -27.52 M122.91 -3.13 C127.16 -8.02, 131.42 -12.91, 139.31 -22 M122.91 -3.13 C127.93 -8.9, 132.95 -14.67, 139.31 -22 M148.5 -32.56 C148.5 -32.56, 148.5 -32.56, 148.5 -32.56 M148.5 -32.56 C148.5 -32.56, 148.5 -32.56, 148.5 -32.56 M124.27 -0.63 C129.27 -6.37, 134.26 -12.12, 138.7 -17.23 M124.27 -0.63 C129.14 -6.23, 134.01 -11.83, 138.7 -17.23 M147.23 -27.04 C148.62 -28.64, 150.01 -30.24, 152.48 -33.08 M147.23 -27.04 C148.84 -28.89, 150.45 -30.74, 152.48 -33.08 M126.28 1.12 C128.52 -1.45, 130.76 -4.03, 137.44 -11.71 M126.28 1.12 C128.58 -1.52, 130.88 -4.16, 137.44 -11.71 M146.62 -22.27 C149.96 -26.11, 153.29 -29.95, 156.46 -33.59 M146.62 -22.27 C149.3 -25.35, 151.98 -28.44, 156.46 -33.59 M129.61 1.36 C131.5 -0.81, 133.39 -2.99, 136.17 -6.18 M129.61 1.36 C131.51 -0.83, 133.42 -3.02, 136.17 -6.18 M145.35 -16.75 C149.09 -21.05, 152.84 -25.36, 159.79 -33.35 M145.35 -16.75 C150.28 -22.42, 155.21 -28.08, 159.79 -33.35 M134.24 0.1 C135.25 -1.06, 136.25 -2.21, 136.87 -2.92 M134.24 0.1 C134.83 -0.58, 135.41 -1.25, 136.87 -2.92 M144.08 -11.23 C148.35 -16.13, 152.61 -21.03, 162.45 -32.36 M144.08 -11.23 C151.19 -19.4, 158.29 -27.57, 162.45 -32.36 M143.47 -6.46 C149.97 -13.93, 156.47 -21.41, 160.53 -26.08 M143.47 -6.46 C148.91 -12.71, 154.34 -18.96, 160.53 -26.08 M162.5 -28.34 C163.46 -29.45, 164.42 -30.56, 166.43 -32.87 M162.5 -28.34 C163.9 -29.96, 165.31 -31.57, 166.43 -32.87 M142.21 -0.93 C146.68 -6.08, 151.15 -11.22, 160.57 -22.07 M142.21 -0.93 C149.17 -8.95, 156.14 -16.96, 160.57 -22.07 M165.82 -28.1 C166.95 -29.4, 168.08 -30.7, 170.42 -33.39 M165.82 -28.1 C167.06 -29.53, 168.3 -30.96, 170.42 -33.39 M142.91 2.32 C148.36 -3.95, 153.82 -10.23, 159.96 -17.3 M142.91 2.32 C149.36 -5.1, 155.81 -12.53, 159.96 -17.3 M166.52 -24.84 C168.9 -27.58, 171.27 -30.31, 173.74 -33.15 M166.52 -24.84 C169.23 -27.96, 171.94 -31.08, 173.74 -33.15 M146.89 1.81 C150.14 -1.93, 153.4 -5.68, 158.7 -11.77 M146.89 1.81 C149.57 -1.28, 152.26 -4.37, 158.7 -11.77 M165.26 -19.32 C169.67 -24.4, 174.08 -29.47, 176.41 -32.15 M165.26 -19.32 C169.43 -24.13, 173.61 -28.93, 176.41 -32.15 M150.21 2.05 C151.93 0.07, 153.65 -1.91, 157.43 -6.25 M150.21 2.05 C151.87 0.14, 153.54 -1.78, 157.43 -6.25 M164.64 -14.55 C168.8 -19.33, 172.96 -24.12, 177.77 -29.65 M164.64 -14.55 C167.42 -17.74, 170.19 -20.94, 177.77 -29.65 M164.03 -9.79 C167.83 -14.16, 171.63 -18.53, 177.81 -25.63 M164.03 -9.79 C167.35 -13.6, 170.67 -17.42, 177.81 -25.63 M164.08 -5.77 C167.21 -9.38, 170.35 -12.99, 177.2 -20.87 M164.08 -5.77 C168.38 -10.72, 172.68 -15.67, 177.2 -20.87 M163.47 -1 C168.03 -6.25, 172.59 -11.5, 176.59 -16.1 M163.47 -1 C168.45 -6.73, 173.43 -12.46, 176.59 -16.1 M165.48 0.75 C169.38 -3.74, 173.28 -8.23, 175.97 -11.33 M165.48 0.75 C168.03 -2.19, 170.58 -5.12, 175.97 -11.33 M168.15 1.74 C170.18 -0.6, 172.22 -2.94, 175.36 -6.56 M168.15 1.74 C171.02 -1.57, 173.9 -4.87, 175.36 -6.56 M171.47 1.98 C173.5 -0.35, 175.53 -2.69, 176.72 -4.06 M171.47 1.98 C172.68 0.58, 173.9 -0.81, 176.72 -4.06" stroke="#FFFFFF" stroke-width="0" fill="none"></path><path d="M14.34 0 C10.63 0, 6.92 0, 0.38 0 M14.34 0 C8.88 0, 3.42 0, 0.38 0 M0.38 0 C2.73 -12.24, 5.09 -24.47, 8.51 -42.24 M0.38 0 C2.14 -9.14, 3.9 -18.29, 8.51 -42.24 M8.51 -42.24 C11.67 -42.24, 14.82 -42.24, 22.59 -42.24 M8.51 -42.24 C11.95 -42.24, 15.38 -42.24, 22.59 -42.24 M22.59 -42.24 C20.94 -33.77, 19.28 -25.3, 14.34 0 M22.59 -42.24 C20.73 -32.72, 18.87 -23.2, 14.34 0" stroke="#FFFFFF" stroke-width="6" fill="none"></path><path d="M70.08 1.28 C69.07 1.17, 68.07 1.06, 66.69 0.9 M70.08 1.28 C69.2 1.18, 68.31 1.08, 66.69 0.9 M66.69 0.9 C65.91 0.54, 65.13 0.17, 64.28 -0.23 M66.69 0.9 C66.04 0.6, 65.38 0.29, 64.28 -0.23 M64.28 -0.23 C63.82 -0.81, 63.37 -1.39, 62.82 -2.11 M64.28 -0.23 C63.75 -0.9, 63.23 -1.58, 62.82 -2.11 M62.82 -2.11 C62.77 -3.66, 62.72 -5.22, 62.62 -7.98 M62.82 -2.11 C62.78 -3.46, 62.73 -4.81, 62.62 -7.98 M62.62 -7.98 C63.37 -12.07, 64.11 -16.15, 65.86 -25.73 M62.62 -7.98 C63.65 -13.62, 64.68 -19.27, 65.86 -25.73 M65.86 -25.73 C65.63 -26.66, 65.4 -27.59, 65.25 -28.18 M65.86 -25.73 C65.71 -26.34, 65.55 -26.96, 65.25 -28.18 M65.25 -28.18 C64.69 -28.42, 64.14 -28.67, 63.42 -28.99 M65.25 -28.18 C64.68 -28.43, 64.11 -28.68, 63.42 -28.99 M63.42 -28.99 C62.81 -28.78, 62.2 -28.56, 61.84 -28.44 M63.42 -28.99 C62.86 -28.8, 62.31 -28.6, 61.84 -28.44 M61.84 -28.44 C61.47 -28.04, 61.1 -27.65, 60.29 -26.78 M61.84 -28.44 C61.44 -28.01, 61.04 -27.58, 60.29 -26.78 M60.29 -26.78 C59.9 -25.97, 59.51 -25.17, 58.96 -24.02 M60.29 -26.78 C60.02 -26.22, 59.75 -25.67, 58.96 -24.02 M58.96 -24.02 C57.96 -19.08, 56.95 -14.14, 54.08 0 M58.96 -24.02 C57.63 -17.49, 56.3 -10.95, 54.08 0 M54.08 0 C51.16 0.3, 48.24 0.6, 41.6 1.28 M54.08 0 C49.16 0.5, 44.25 1.01, 41.6 1.28 M41.6 1.28 C43.5 -9, 45.4 -19.27, 46.66 -26.05 M41.6 1.28 C42.85 -5.48, 44.1 -12.24, 46.66 -26.05 M46.66 -26.05 C46.49 -26.75, 46.32 -27.44, 46.11 -28.26 M46.66 -26.05 C46.55 -26.5, 46.44 -26.96, 46.11 -28.26 M46.11 -28.26 C45.62 -28.48, 45.13 -28.7, 44.48 -28.99 M46.11 -28.26 C45.77 -28.41, 45.42 -28.57, 44.48 -28.99 M44.48 -28.99 C43.9 -28.78, 43.33 -28.57, 42.98 -28.45 M44.48 -28.99 C44.17 -28.88, 43.85 -28.76, 42.98 -28.45 M42.98 -28.45 C42.66 -28.12, 42.35 -27.8, 41.41 -26.82 M42.98 -28.45 C42.45 -27.9, 41.93 -27.36, 41.41 -26.82 M41.41 -26.82 C40.98 -25.98, 40.54 -25.15, 39.99 -24.07 M41.41 -26.82 C40.98 -25.99, 40.56 -25.17, 39.99 -24.07 M39.99 -24.07 C38.94 -19.01, 37.9 -13.96, 35.01 0 M39.99 -24.07 C38.14 -15.15, 36.3 -6.24, 35.01 0 M35.01 0 C31.73 0.33, 28.46 0.67, 22.4 1.28 M35.01 0 C32.37 0.27, 29.72 0.54, 22.4 1.28 M22.4 1.28 C23.89 -6.22, 25.37 -13.72, 29.12 -32.64 M22.4 1.28 C23.75 -5.55, 25.11 -12.38, 29.12 -32.64 M29.12 -32.64 C31.4 -32.92, 33.68 -33.2, 39.55 -33.92 M29.12 -32.64 C32.8 -33.09, 36.48 -33.54, 39.55 -33.92 M39.55 -33.92 C39.15 -31.55, 38.75 -29.18, 38.46 -27.46 M39.55 -33.92 C39.16 -31.61, 38.77 -29.31, 38.46 -27.46 M38.46 -27.46 C38.97 -28.21, 39.48 -28.96, 40.48 -30.43 M38.46 -27.46 C39.26 -28.63, 40.05 -29.8, 40.48 -30.43 M40.48 -30.43 C41.06 -30.85, 41.63 -31.27, 43.2 -32.42 M40.48 -30.43 C41.25 -30.99, 42.03 -31.56, 43.2 -32.42 M43.2 -32.42 C44.32 -32.78, 45.44 -33.14, 46.7 -33.55 M43.2 -32.42 C44.32 -32.78, 45.45 -33.14, 46.7 -33.55 M46.7 -33.55 C48.62 -33.56, 50.54 -33.57, 53.58 -33.59 M46.7 -33.55 C49.05 -33.56, 51.4 -33.57, 53.58 -33.59 M53.58 -33.59 C54.31 -33.23, 55.03 -32.87, 55.62 -32.58 M53.58 -33.59 C54.04 -33.36, 54.51 -33.13, 55.62 -32.58 M55.62 -32.58 C56.38 -31.44, 57.15 -30.3, 57.98 -29.06 M55.62 -32.58 C56.56 -31.18, 57.5 -29.78, 57.98 -29.06 M57.98 -29.06 C58.48 -29.72, 58.97 -30.38, 59.5 -31.07 M57.98 -29.06 C58.43 -29.66, 58.88 -30.25, 59.5 -31.07 M59.5 -31.07 C60.8 -31.69, 62.11 -32.31, 64.8 -33.59 M59.5 -31.07 C60.91 -31.74, 62.33 -32.41, 64.8 -33.59 M64.8 -33.59 C66.56 -33.63, 68.32 -33.67, 71.05 -33.73 M64.8 -33.59 C66.96 -33.64, 69.13 -33.69, 71.05 -33.73 M71.05 -33.73 C71.5 -33.62, 71.94 -33.5, 73.18 -33.18 M71.05 -33.73 C71.7 -33.57, 72.34 -33.4, 73.18 -33.18 M73.18 -33.18 C73.87 -32.69, 74.55 -32.2, 75.9 -31.23 M73.18 -33.18 C74.08 -32.53, 74.99 -31.88, 75.9 -31.23 M75.9 -31.23 C76.38 -30.24, 76.85 -29.25, 77.2 -28.53 M75.9 -31.23 C76.3 -30.39, 76.7 -29.55, 77.2 -28.53 M77.2 -28.53 C77.3 -27.68, 77.4 -26.84, 77.63 -24.9 M77.2 -28.53 C77.36 -27.13, 77.53 -25.72, 77.63 -24.9 M77.63 -24.9 C76.76 -18.91, 75.89 -12.92, 75.01 -6.88 M77.63 -24.9 C76.78 -19.03, 75.92 -13.16, 75.01 -6.88 M75.01 -6.88 C75.34 -5.96, 75.67 -5.04, 75.87 -4.48 M75.01 -6.88 C75.32 -6.02, 75.63 -5.15, 75.87 -4.48 M75.87 -4.48 C76.65 -4.11, 77.44 -3.74, 78.02 -3.46 M75.87 -4.48 C76.49 -4.18, 77.12 -3.89, 78.02 -3.46 M78.02 -3.46 C77.79 -3.02, 77.56 -2.59, 76.99 -1.51 M78.02 -3.46 C77.77 -2.98, 77.51 -2.5, 76.99 -1.51 M76.99 -1.51 C76.3 -0.94, 75.61 -0.37, 75.17 0 M76.99 -1.51 C76.59 -1.18, 76.2 -0.85, 75.17 0 M75.17 0 C73.33 0.46, 71.49 0.93, 70.08 1.28 M75.17 0 C73.19 0.5, 71.2 1, 70.08 1.28" stroke="#FFFFFF" stroke-width="6" fill="none"></path><path d="M112.77 -4.38 C111.62 -3.43, 110.46 -2.49, 109.83 -1.97 M112.77 -4.38 C111.83 -3.61, 110.9 -2.85, 109.83 -1.97 M109.83 -1.97 C107.33 -0.96, 104.82 0.06, 102.73 0.91 M109.83 -1.97 C107.94 -1.2, 106.04 -0.43, 102.73 0.91 M102.73 0.91 C101.98 0.99, 101.22 1.06, 99.07 1.28 M102.73 0.91 C101.83 1, 100.93 1.09, 99.07 1.28 M99.07 1.28 C97.31 1.05, 95.55 0.82, 94.14 0.64 M99.07 1.28 C97.86 1.12, 96.64 0.96, 94.14 0.64 M94.14 0.64 C93.66 3.29, 93.17 5.94, 92.16 11.52 M94.14 0.64 C93.68 3.14, 93.23 5.65, 92.16 11.52 M92.16 11.52 C89.14 11.82, 86.12 12.12, 79.17 12.8 M92.16 11.52 C87.39 11.99, 82.61 12.46, 79.17 12.8 M79.17 12.8 C82.1 -2.29, 85.04 -17.39, 88 -32.64 M79.17 12.8 C81.07 3.04, 82.96 -6.73, 88 -32.64 M88 -32.64 C90.82 -32.93, 93.64 -33.23, 98.43 -33.73 M88 -32.64 C91.09 -32.96, 94.19 -33.29, 98.43 -33.73 M98.43 -33.73 C98.14 -32.21, 97.86 -30.68, 97.6 -29.31 M98.43 -33.73 C98.15 -32.22, 97.86 -30.72, 97.6 -29.31 M97.6 -29.31 C98.53 -30.24, 99.45 -31.16, 101.01 -32.72 M97.6 -29.31 C98.55 -30.26, 99.51 -31.22, 101.01 -32.72 M101.01 -32.72 C101.81 -33.03, 102.62 -33.33, 103.25 -33.58 M101.01 -32.72 C101.61 -32.95, 102.2 -33.18, 103.25 -33.58 M103.25 -33.58 C104.56 -33.58, 105.86 -33.59, 108.81 -33.61 M103.25 -33.58 C104.74 -33.58, 106.23 -33.59, 108.81 -33.61 M108.81 -33.61 C109.48 -33.41, 110.15 -33.22, 111.39 -32.85 M108.81 -33.61 C109.37 -33.44, 109.93 -33.28, 111.39 -32.85 M111.39 -32.85 C112.59 -31.96, 113.78 -31.07, 115.46 -29.82 M111.39 -32.85 C112.82 -31.79, 114.25 -30.72, 115.46 -29.82 M115.46 -29.82 C115.93 -28.95, 116.39 -28.08, 117.66 -25.7 M115.46 -29.82 C116.05 -28.71, 116.64 -27.61, 117.66 -25.7 M117.66 -25.7 C117.85 -24.39, 118.04 -23.07, 118.4 -20.61 M117.66 -25.7 C117.84 -24.49, 118.01 -23.29, 118.4 -20.61 M118.4 -20.61 C118.3 -19.23, 118.2 -17.85, 118.03 -15.44 M118.4 -20.61 C118.28 -18.94, 118.16 -17.28, 118.03 -15.44 M118.03 -15.44 C117.72 -14.21, 117.41 -12.98, 116.93 -11.07 M118.03 -15.44 C117.59 -13.7, 117.16 -11.96, 116.93 -11.07 M116.93 -11.07 C116.35 -9.88, 115.77 -8.68, 115.16 -7.41 M116.93 -11.07 C116.46 -10.09, 115.98 -9.11, 115.16 -7.41 M115.16 -7.41 C114.54 -6.64, 113.93 -5.86, 112.77 -4.38 M115.16 -7.41 C114.35 -6.39, 113.55 -5.38, 112.77 -4.38" stroke="#FFFFFF" stroke-width="6" fill="none"></path><path d="M98.3 -22.34 C97.43 -17.51, 96.56 -12.68, 94.91 -3.58 M98.3 -22.34 C97.34 -17.05, 96.39 -11.77, 94.91 -3.58 M94.91 -3.58 C96.04 -3.15, 97.16 -2.72, 97.92 -2.43 M94.91 -3.58 C96.1 -3.12, 97.3 -2.67, 97.92 -2.43 M97.92 -2.43 C98.46 -2.56, 99.01 -2.7, 100.54 -3.07 M97.92 -2.43 C98.46 -2.56, 98.99 -2.69, 100.54 -3.07 M100.54 -3.07 C101.13 -3.74, 101.71 -4.42, 102.21 -4.99 M100.54 -3.07 C100.95 -3.54, 101.35 -4.01, 102.21 -4.99 M102.21 -4.99 C102.87 -6.87, 103.53 -8.76, 104.03 -10.21 M102.21 -4.99 C102.93 -7.05, 103.65 -9.11, 104.03 -10.21 M104.03 -10.21 C104.67 -13.65, 105.32 -17.09, 105.66 -18.94 M104.03 -10.21 C104.4 -12.2, 104.78 -14.2, 105.66 -18.94 M105.66 -18.94 C105.83 -21.19, 105.99 -23.43, 106.11 -25.02 M105.66 -18.94 C105.76 -20.34, 105.87 -21.74, 106.11 -25.02 M106.11 -25.02 C105.86 -26.49, 105.61 -27.96, 105.44 -28.99 M106.11 -25.02 C105.85 -26.58, 105.58 -28.15, 105.44 -28.99 M105.44 -28.99 C104.89 -29.26, 104.33 -29.53, 103.49 -29.95 M105.44 -28.99 C104.73 -29.34, 104.01 -29.69, 103.49 -29.95 M103.49 -29.95 C103.07 -29.84, 102.65 -29.73, 101.7 -29.47 M103.49 -29.95 C102.83 -29.77, 102.16 -29.6, 101.7 -29.47 M101.7 -29.47 C101.32 -29.11, 100.95 -28.74, 100.24 -28.05 M101.7 -29.47 C101.36 -29.14, 101.02 -28.81, 100.24 -28.05 M100.24 -28.05 C99.81 -27.15, 99.38 -26.25, 99.1 -25.67 M100.24 -28.05 C99.94 -27.43, 99.65 -26.82, 99.1 -25.67 M99.1 -25.67 C98.92 -24.93, 98.75 -24.18, 98.3 -22.34 M99.1 -25.67 C98.81 -24.46, 98.52 -23.25, 98.3 -22.34" stroke="#FFFFFF" stroke-width="6" fill="none"></path><path d="M137.6 -3.52 C137.1 -2.68, 136.59 -1.84, 136.34 -1.42 M137.6 -3.52 C137.28 -2.98, 136.95 -2.45, 136.34 -1.42 M136.34 -1.42 C135.93 -1.08, 135.52 -0.74, 134.53 0.08 M136.34 -1.42 C135.65 -0.85, 134.97 -0.28, 134.53 0.08 M134.53 0.08 C133.06 0.42, 131.58 0.75, 129.28 1.28 M134.53 0.08 C133.12 0.4, 131.72 0.72, 129.28 1.28 M129.28 1.28 C128.22 1.08, 127.17 0.88, 126.32 0.72 M129.28 1.28 C128.67 1.16, 128.05 1.05, 126.32 0.72 M126.32 0.72 C125.74 0.3, 125.16 -0.11, 123.97 -0.96 M126.32 0.72 C125.4 0.06, 124.48 -0.6, 123.97 -0.96 M123.97 -0.96 C123.64 -1.47, 123.31 -1.97, 122.67 -2.94 M123.97 -0.96 C123.64 -1.47, 123.3 -1.98, 122.67 -2.94 M122.67 -2.94 C122.57 -3.43, 122.46 -3.92, 122.24 -4.93 M122.67 -2.94 C122.53 -3.58, 122.39 -4.22, 122.24 -4.93 M122.24 -4.93 C122.44 -7.08, 122.64 -9.22, 122.83 -11.34 M122.24 -4.93 C122.42 -6.87, 122.6 -8.82, 122.83 -11.34 M122.83 -11.34 C124.28 -18.78, 125.73 -26.21, 126.98 -32.64 M122.83 -11.34 C124.22 -18.47, 125.61 -25.6, 126.98 -32.64 M126.98 -32.64 C131.47 -33.08, 135.97 -33.53, 139.97 -33.92 M126.98 -32.64 C129.78 -32.92, 132.59 -33.19, 139.97 -33.92 M139.97 -33.92 C138.88 -28.1, 137.79 -22.27, 134.98 -7.3 M139.97 -33.92 C138.54 -26.28, 137.11 -18.64, 134.98 -7.3 M134.98 -7.3 C135.22 -6.28, 135.46 -5.26, 135.63 -4.53 M134.98 -7.3 C135.24 -6.21, 135.49 -5.13, 135.63 -4.53 M135.63 -4.53 C136.04 -4.32, 136.45 -4.11, 137.6 -3.52 M135.63 -4.53 C136.18 -4.25, 136.73 -3.97, 137.6 -3.52" stroke="#FFFFFF" stroke-width="6" fill="none"></path><path d="M128.13 -41.54 C128.27 -42.14, 128.41 -42.74, 128.65 -43.75 M128.13 -41.54 C128.24 -41.99, 128.34 -42.45, 128.65 -43.75 M128.65 -43.75 C129.22 -44.35, 129.8 -44.95, 130.21 -45.38 M128.65 -43.75 C129.22 -44.34, 129.79 -44.94, 130.21 -45.38 M130.21 -45.38 C131.36 -45.68, 132.51 -45.99, 135.3 -46.72 M130.21 -45.38 C131.27 -45.66, 132.33 -45.94, 135.3 -46.72 M135.3 -46.72 C135.96 -46.64, 136.61 -46.56, 138.01 -46.39 M135.3 -46.72 C136.03 -46.63, 136.76 -46.54, 138.01 -46.39 M138.01 -46.39 C138.63 -46.09, 139.25 -45.8, 140.13 -45.38 M138.01 -46.39 C138.76 -46.03, 139.52 -45.67, 140.13 -45.38 M140.13 -45.38 C140.65 -44.75, 141.18 -44.13, 141.5 -43.75 M140.13 -45.38 C140.52 -44.91, 140.91 -44.44, 141.5 -43.75 M141.5 -43.75 C141.67 -42.89, 141.85 -42.03, 141.95 -41.54 M141.5 -43.75 C141.6 -43.25, 141.7 -42.76, 141.95 -41.54 M141.95 -41.54 C141.77 -40.78, 141.6 -40.01, 141.45 -39.34 M141.95 -41.54 C141.8 -40.89, 141.65 -40.25, 141.45 -39.34 M141.45 -39.34 C140.89 -38.75, 140.32 -38.16, 139.94 -37.76 M141.45 -39.34 C141.04 -38.91, 140.63 -38.48, 139.94 -37.76 M139.94 -37.76 C138.36 -37.36, 136.77 -36.95, 134.91 -36.48 M139.94 -37.76 C138.09 -37.29, 136.23 -36.82, 134.91 -36.48 M134.91 -36.48 C133.72 -36.79, 132.53 -37.1, 130.02 -37.76 M134.91 -36.48 C133.87 -36.75, 132.84 -37.02, 130.02 -37.76 M130.02 -37.76 C129.52 -38.32, 129.02 -38.88, 128.6 -39.35 M130.02 -37.76 C129.73 -38.09, 129.43 -38.42, 128.6 -39.35 M128.6 -39.35 C128.48 -39.93, 128.35 -40.52, 128.13 -41.54 M128.6 -39.35 C128.46 -40.02, 128.31 -40.7, 128.13 -41.54" stroke="#FFFFFF" stroke-width="6" fill="none"></path><path d="M170.11 1.28 C169.05 1.16, 167.98 1.04, 166.72 0.9 M170.11 1.28 C169.35 1.2, 168.59 1.11, 166.72 0.9 M166.72 0.9 C166.22 0.67, 165.71 0.43, 164.31 -0.22 M166.72 0.9 C165.89 0.51, 165.05 0.12, 164.31 -0.22 M164.31 -0.22 C163.88 -0.78, 163.45 -1.33, 162.85 -2.11 M164.31 -0.22 C164 -0.62, 163.69 -1.02, 162.85 -2.11 M162.85 -2.11 C162.75 -3.63, 162.65 -5.15, 162.54 -6.69 M162.85 -2.11 C162.77 -3.32, 162.69 -4.53, 162.54 -6.69 M162.54 -6.69 C163.29 -10.95, 164.04 -15.21, 165.82 -25.28 M162.54 -6.69 C163.26 -10.74, 163.97 -14.79, 165.82 -25.28 M165.82 -25.28 C165.66 -26.08, 165.51 -26.88, 165.28 -28.06 M165.82 -25.28 C165.66 -26.09, 165.5 -26.91, 165.28 -28.06 M165.28 -28.06 C164.91 -28.27, 164.55 -28.48, 163.65 -28.99 M165.28 -28.06 C164.7 -28.39, 164.12 -28.72, 163.65 -28.99 M163.65 -28.99 C163.05 -28.78, 162.44 -28.57, 161.93 -28.39 M163.65 -28.99 C163.17 -28.82, 162.69 -28.66, 161.93 -28.39 M161.93 -28.39 C161.59 -27.98, 161.24 -27.57, 160.43 -26.61 M161.93 -28.39 C161.34 -27.69, 160.75 -26.98, 160.43 -26.61 M160.43 -26.61 C160.06 -25.74, 159.68 -24.86, 159.15 -23.63 M160.43 -26.61 C160.04 -25.7, 159.65 -24.79, 159.15 -23.63 M159.15 -23.63 C158.03 -18.17, 156.91 -12.71, 154.3 0 M159.15 -23.63 C157.54 -15.8, 155.94 -7.98, 154.3 0 M154.3 0 C150.51 0.38, 146.72 0.75, 141.44 1.28 M154.3 0 C150.19 0.41, 146.07 0.82, 141.44 1.28 M141.44 1.28 C142.85 -5.89, 144.25 -13.06, 148.1 -32.7 M141.44 1.28 C143.07 -7.05, 144.7 -15.37, 148.1 -32.7 M148.1 -32.7 C151.97 -33.15, 155.84 -33.6, 158.59 -33.92 M148.1 -32.7 C150.52 -32.98, 152.94 -33.26, 158.59 -33.92 M158.59 -33.92 C158.38 -32.63, 158.17 -31.35, 157.57 -27.65 M158.59 -33.92 C158.29 -32.08, 157.99 -30.24, 157.57 -27.65 M157.57 -27.65 C158.3 -28.71, 159.03 -29.76, 159.46 -30.39 M157.57 -27.65 C158.24 -28.62, 158.91 -29.59, 159.46 -30.39 M159.46 -30.39 C160.02 -30.81, 160.59 -31.22, 162.13 -32.35 M159.46 -30.39 C160.36 -31.05, 161.26 -31.71, 162.13 -32.35 M162.13 -32.35 C163.42 -32.79, 164.7 -33.23, 165.57 -33.53 M162.13 -32.35 C163.39 -32.78, 164.64 -33.21, 165.57 -33.53 M165.57 -33.53 C166.49 -33.61, 167.41 -33.7, 169.79 -33.92 M165.57 -33.53 C167.12 -33.67, 168.67 -33.82, 169.79 -33.92 M169.79 -33.92 C171.22 -33.74, 172.66 -33.57, 173.62 -33.45 M169.79 -33.92 C171.15 -33.75, 172.52 -33.58, 173.62 -33.45 M173.62 -33.45 C174.23 -33.11, 174.83 -32.77, 176.16 -32.03 M173.62 -33.45 C174.47 -32.97, 175.32 -32.5, 176.16 -32.03 M176.16 -32.03 C176.57 -31.31, 176.98 -30.59, 177.58 -29.56 M176.16 -32.03 C176.68 -31.13, 177.2 -30.22, 177.58 -29.56 M177.58 -29.56 C177.76 -28.15, 177.94 -26.75, 178.05 -25.92 M177.58 -29.56 C177.68 -28.79, 177.78 -28.01, 178.05 -25.92 M178.05 -25.92 C177.32 -21.34, 176.6 -16.76, 175.04 -6.94 M178.05 -25.92 C177.41 -21.87, 176.77 -17.83, 175.04 -6.94 M175.04 -6.94 C175.31 -6.18, 175.57 -5.41, 175.9 -4.48 M175.04 -6.94 C175.37 -6, 175.69 -5.07, 175.9 -4.48 M175.9 -4.48 C176.66 -4.12, 177.42 -3.76, 178.05 -3.46 M175.9 -4.48 C176.52 -4.19, 177.14 -3.89, 178.05 -3.46 M178.05 -3.46 C177.67 -2.73, 177.28 -2.01, 177.02 -1.51 M178.05 -3.46 C177.79 -2.96, 177.52 -2.46, 177.02 -1.51 M177.02 -1.51 C176.41 -1, 175.81 -0.5, 175.2 0 M177.02 -1.51 C176.39 -0.98, 175.75 -0.46, 175.2 0 M175.2 0 C173.78 0.36, 172.36 0.71, 170.11 1.28 M175.2 0 C173.42 0.45, 171.63 0.9, 170.11 1.28" stroke="#FFFFFF" stroke-width="6" fill="none"></path></g>         </g>     </g> </g><style type="text/css">#generated_svg { filter: saturate(1.26) brightness(100%)  contrast(100%) hue-rotate(0deg) !important; } </style><metadata>Generated by https://instad.io</metadata></svg>