<svg xmlns="http://www.w3.org/2000/svg" viewBox="0 0 500 500">
      <rect width="100%" height="100%" fill="#191b28"/>
      <path fill="#ffffff" d="M250 129.5c-35.8 0-64.9 29.1-64.9 64.9s29.1 64.9 64.9 64.9 64.9-29.1 64.9-64.9-29.1-64.9-64.9-64.9zm0 98.4c-18.7 0-33.9-15.2-33.9-33.9s15.2-33.9 33.9-33.9 33.9 15.2 33.9 33.9-15.2 33.9-33.9 33.9z"/>
      <path fill="#ffffff" d="M382.5 364.5H117.5c-11.1 0-20.1-9-20.1-20.1v-182c0-11.1 9-20.1 20.1-20.1h265c11.1 0 20.1 9 20.1 20.1v182c-.1 11.1-9.1 20.1-20.1 20.1zm-265-221.1c-4.4 0-8 3.6-8 8v182c0 4.4 3.6 8 8 8h265c4.4 0 8-3.6 8-8v-182c0-4.4-3.6-8-8-8h-265z"/>
      <path fill="#ffffff" d="M341.2 276.9c-1.5 0-3-.6-4.2-1.8l-38.3-38.3c-2.3-2.3-2.3-6.1 0-8.5s6.1-2.3 8.5 0l33.8 33.8 87-86.9c2.3-2.3 6.1-2.3 8.5 0s2.3 6.1 0 8.5l-91.1 91.1c-1.2 1.2-2.7 1.8-4.2 1.8z"/>
      <path fill="#ffffff" d="M158.8 276.9c-1.5 0-3-.6-4.2-1.8L63.4 184.1c-2.3-2.3-2.3-6.1 0-8.5s6.1-2.3 8.5 0l87 86.9 33.8-33.8c2.3-2.3 6.1-2.3 8.5 0s2.3 6.1 0 8.5l-91.1 91.1c-1.2 1.2-2.7 1.8-4.2 1.8z"/>
</svg>